<svg width="188" height="19" viewBox="0 0 188 19" fill="none" xmlns="http://www.w3.org/2000/svg">
<g opacity="0.8">
<path d="M9.49967 17.4166C13.8719 17.4166 17.4163 13.8722 17.4163 9.49998C17.4163 5.12773 13.8719 1.58331 9.49967 1.58331C5.12742 1.58331 1.58301 5.12773 1.58301 9.49998C1.58301 13.8722 5.12742 17.4166 9.49967 17.4166Z" stroke="#292D32" stroke-width="1.5" stroke-linecap="round" stroke-linejoin="round"/>
<path d="M6.33294 2.375H7.12461C5.58086 6.99833 5.58086 12.0017 7.12461 16.625H6.33294" stroke="#292D32" stroke-width="1.5" stroke-linecap="round" stroke-linejoin="round"/>
<path d="M11.875 2.375C13.4187 6.99833 13.4187 12.0017 11.875 16.625" stroke="#292D32" stroke-width="1.5" stroke-linecap="round" stroke-linejoin="round"/>
<path d="M2.375 12.6667V11.875C6.99833 13.4187 12.0017 13.4187 16.625 11.875V12.6667" stroke="#292D32" stroke-width="1.5" stroke-linecap="round" stroke-linejoin="round"/>
<path d="M2.375 7.12498C6.99833 5.58123 12.0017 5.58123 16.625 7.12498" stroke="#292D32" stroke-width="1.5" stroke-linecap="round" stroke-linejoin="round"/>
<path d="M47.458 16.2291H39.5413C37.1663 16.2291 35.583 15.0416 35.583 12.2708V6.72915C35.583 3.95831 37.1663 2.77081 39.5413 2.77081H47.458C49.833 2.77081 51.4163 3.95831 51.4163 6.72915V12.2708C51.4163 15.0416 49.833 16.2291 47.458 16.2291Z" stroke="#292D32" stroke-width="1.5" stroke-miterlimit="10" stroke-linecap="round" stroke-linejoin="round"/>
<path d="M47.4587 7.125L44.9807 9.10417C44.1653 9.75333 42.8274 9.75333 42.012 9.10417L39.542 7.125" stroke="#292D32" stroke-width="1.5" stroke-miterlimit="10" stroke-linecap="round" stroke-linejoin="round"/>
</g>
<path d="M65 2.5V16.5" stroke="#D2DBE4"/>
<path opacity="0.6" d="M82.6235 7.598C82.6235 8.41 82.3435 9.08667 81.7835 9.628C81.2328 10.16 80.3882 10.426 79.2495 10.426H77.3735V14.5H76.0995V4.742H79.2495C80.3508 4.742 81.1862 5.008 81.7555 5.54C82.3342 6.072 82.6235 6.758 82.6235 7.598ZM79.2495 9.376C79.9588 9.376 80.4815 9.222 80.8175 8.914C81.1535 8.606 81.3215 8.16733 81.3215 7.598C81.3215 6.394 80.6308 5.792 79.2495 5.792H77.3735V9.376H79.2495ZM91.2069 10.37C91.2069 10.6127 91.1929 10.8693 91.1649 11.14H85.0329C85.0796 11.896 85.3362 12.4887 85.8029 12.918C86.2789 13.338 86.8529 13.548 87.5249 13.548C88.0756 13.548 88.5329 13.422 88.8969 13.17C89.2702 12.9087 89.5316 12.5633 89.6809 12.134H91.0529C90.8476 12.8713 90.4369 13.4733 89.8209 13.94C89.2049 14.3973 88.4396 14.626 87.5249 14.626C86.7969 14.626 86.1436 14.4627 85.5649 14.136C84.9956 13.8093 84.5476 13.3473 84.2209 12.75C83.8942 12.1433 83.7309 11.4433 83.7309 10.65C83.7309 9.85667 83.8896 9.16133 84.2069 8.564C84.5242 7.96667 84.9676 7.50933 85.5369 7.192C86.1156 6.86533 86.7782 6.702 87.5249 6.702C88.2529 6.702 88.8969 6.86067 89.4569 7.178C90.0169 7.49533 90.4462 7.934 90.7449 8.494C91.0529 9.04467 91.2069 9.67 91.2069 10.37ZM89.8909 10.104C89.8909 9.61867 89.7836 9.20333 89.5689 8.858C89.3542 8.50333 89.0602 8.23733 88.6869 8.06C88.3229 7.87333 87.9169 7.78 87.4689 7.78C86.8249 7.78 86.2742 7.98533 85.8169 8.396C85.3689 8.80667 85.1122 9.376 85.0469 10.104H89.8909ZM94.4425 7.878V12.4C94.4425 12.7733 94.5219 13.0393 94.6805 13.198C94.8392 13.3473 95.1145 13.422 95.5065 13.422H96.4445V14.5H95.2965C94.5872 14.5 94.0552 14.3367 93.7005 14.01C93.3459 13.6833 93.1685 13.1467 93.1685 12.4V7.878H92.1745V6.828H93.1685V4.896H94.4425V6.828H96.4445V7.878H94.4425ZM104.815 14.598C104.171 14.598 103.592 14.486 103.079 14.262C102.575 14.0287 102.178 13.7113 101.889 13.31C101.599 12.8993 101.45 12.428 101.441 11.896H102.799C102.845 12.3533 103.032 12.7407 103.359 13.058C103.695 13.366 104.18 13.52 104.815 13.52C105.421 13.52 105.897 13.3707 106.243 13.072C106.597 12.764 106.775 12.372 106.775 11.896C106.775 11.5227 106.672 11.2193 106.467 10.986C106.261 10.7527 106.005 10.5753 105.697 10.454C105.389 10.3327 104.973 10.202 104.451 10.062C103.807 9.894 103.289 9.726 102.897 9.558C102.514 9.39 102.183 9.12867 101.903 8.774C101.632 8.41 101.497 7.92467 101.497 7.318C101.497 6.786 101.632 6.31467 101.903 5.904C102.173 5.49333 102.551 5.176 103.037 4.952C103.531 4.728 104.096 4.616 104.731 4.616C105.645 4.616 106.392 4.84467 106.971 5.302C107.559 5.75933 107.89 6.366 107.965 7.122H106.565C106.518 6.74867 106.322 6.422 105.977 6.142C105.631 5.85267 105.174 5.708 104.605 5.708C104.073 5.708 103.639 5.848 103.303 6.128C102.967 6.39867 102.799 6.78133 102.799 7.276C102.799 7.63067 102.897 7.92 103.093 8.144C103.298 8.368 103.545 8.54067 103.835 8.662C104.133 8.774 104.549 8.90467 105.081 9.054C105.725 9.23133 106.243 9.40867 106.635 9.586C107.027 9.754 107.363 10.02 107.643 10.384C107.923 10.7387 108.063 11.224 108.063 11.84C108.063 12.316 107.937 12.764 107.685 13.184C107.433 13.604 107.059 13.9447 106.565 14.206C106.07 14.4673 105.487 14.598 104.815 14.598ZM116.741 6.828V14.5H115.467V13.366C115.225 13.758 114.884 14.066 114.445 14.29C114.016 14.5047 113.54 14.612 113.017 14.612C112.42 14.612 111.883 14.4907 111.407 14.248C110.931 13.996 110.553 13.6227 110.273 13.128C110.003 12.6333 109.867 12.0313 109.867 11.322V6.828H111.127V11.154C111.127 11.91 111.319 12.4933 111.701 12.904C112.084 13.3053 112.607 13.506 113.269 13.506C113.951 13.506 114.487 13.296 114.879 12.876C115.271 12.456 115.467 11.8447 115.467 11.042V6.828H116.741ZM120.166 8.242C120.418 7.80333 120.792 7.43933 121.286 7.15C121.79 6.85133 122.374 6.702 123.036 6.702C123.718 6.702 124.334 6.86533 124.884 7.192C125.444 7.51867 125.883 7.98067 126.2 8.578C126.518 9.166 126.676 9.852 126.676 10.636C126.676 11.4107 126.518 12.1013 126.2 12.708C125.883 13.3147 125.444 13.786 124.884 14.122C124.334 14.458 123.718 14.626 123.036 14.626C122.383 14.626 121.804 14.4813 121.3 14.192C120.806 13.8933 120.428 13.5247 120.166 13.086V18.14H118.892V6.828H120.166V8.242ZM125.374 10.636C125.374 10.0573 125.258 9.55333 125.024 9.124C124.791 8.69467 124.474 8.368 124.072 8.144C123.68 7.92 123.246 7.808 122.77 7.808C122.304 7.808 121.87 7.92467 121.468 8.158C121.076 8.382 120.759 8.71333 120.516 9.152C120.283 9.58133 120.166 10.0807 120.166 10.65C120.166 11.2287 120.283 11.7373 120.516 12.176C120.759 12.6053 121.076 12.9367 121.468 13.17C121.87 13.394 122.304 13.506 122.77 13.506C123.246 13.506 123.68 13.394 124.072 13.17C124.474 12.9367 124.791 12.6053 125.024 12.176C125.258 11.7373 125.374 11.224 125.374 10.636ZM129.627 8.242C129.879 7.80333 130.253 7.43933 130.747 7.15C131.251 6.85133 131.835 6.702 132.497 6.702C133.179 6.702 133.795 6.86533 134.345 7.192C134.905 7.51867 135.344 7.98067 135.661 8.578C135.979 9.166 136.137 9.852 136.137 10.636C136.137 11.4107 135.979 12.1013 135.661 12.708C135.344 13.3147 134.905 13.786 134.345 14.122C133.795 14.458 133.179 14.626 132.497 14.626C131.844 14.626 131.265 14.4813 130.761 14.192C130.267 13.8933 129.889 13.5247 129.627 13.086V18.14H128.353V6.828H129.627V8.242ZM134.835 10.636C134.835 10.0573 134.719 9.55333 134.485 9.124C134.252 8.69467 133.935 8.368 133.533 8.144C133.141 7.92 132.707 7.808 132.231 7.808C131.765 7.808 131.331 7.92467 130.929 8.158C130.537 8.382 130.22 8.71333 129.977 9.152C129.744 9.58133 129.627 10.0807 129.627 10.65C129.627 11.2287 129.744 11.7373 129.977 12.176C130.22 12.6053 130.537 12.9367 130.929 13.17C131.331 13.394 131.765 13.506 132.231 13.506C132.707 13.506 133.141 13.394 133.533 13.17C133.935 12.9367 134.252 12.6053 134.485 12.176C134.719 11.7373 134.835 11.224 134.835 10.636ZM139.088 4.14V14.5H137.814V4.14H139.088ZM147.868 6.828L143.248 18.112H141.932L143.444 14.416L140.35 6.828H141.764L144.172 13.044L146.552 6.828H147.868ZM155.975 14.598C155.331 14.598 154.752 14.486 154.239 14.262C153.735 14.0287 153.338 13.7113 153.049 13.31C152.759 12.8993 152.61 12.428 152.601 11.896H153.959C154.005 12.3533 154.192 12.7407 154.519 13.058C154.855 13.366 155.34 13.52 155.975 13.52C156.581 13.52 157.057 13.3707 157.403 13.072C157.757 12.764 157.935 12.372 157.935 11.896C157.935 11.5227 157.832 11.2193 157.627 10.986C157.421 10.7527 157.165 10.5753 156.857 10.454C156.549 10.3327 156.133 10.202 155.611 10.062C154.967 9.894 154.449 9.726 154.057 9.558C153.674 9.39 153.343 9.12867 153.063 8.774C152.792 8.41 152.657 7.92467 152.657 7.318C152.657 6.786 152.792 6.31467 153.063 5.904C153.333 5.49333 153.711 5.176 154.197 4.952C154.691 4.728 155.256 4.616 155.891 4.616C156.805 4.616 157.552 4.84467 158.131 5.302C158.719 5.75933 159.05 6.366 159.125 7.122H157.725C157.678 6.74867 157.482 6.422 157.137 6.142C156.791 5.85267 156.334 5.708 155.765 5.708C155.233 5.708 154.799 5.848 154.463 6.128C154.127 6.39867 153.959 6.78133 153.959 7.276C153.959 7.63067 154.057 7.92 154.253 8.144C154.458 8.368 154.705 8.54067 154.995 8.662C155.293 8.774 155.709 8.90467 156.241 9.054C156.885 9.23133 157.403 9.40867 157.795 9.586C158.187 9.754 158.523 10.02 158.803 10.384C159.083 10.7387 159.223 11.224 159.223 11.84C159.223 12.316 159.097 12.764 158.845 13.184C158.593 13.604 158.219 13.9447 157.725 14.206C157.23 14.4673 156.647 14.598 155.975 14.598ZM162.652 7.878V12.4C162.652 12.7733 162.731 13.0393 162.89 13.198C163.048 13.3473 163.324 13.422 163.716 13.422H164.654V14.5H163.506C162.796 14.5 162.264 14.3367 161.91 14.01C161.555 13.6833 161.378 13.1467 161.378 12.4V7.878H160.384V6.828H161.378V4.896H162.652V6.828H164.654V7.878H162.652ZM169.543 14.626C168.824 14.626 168.171 14.4627 167.583 14.136C167.004 13.8093 166.547 13.3473 166.211 12.75C165.884 12.1433 165.721 11.4433 165.721 10.65C165.721 9.866 165.889 9.17533 166.225 8.578C166.57 7.97133 167.037 7.50933 167.625 7.192C168.213 6.86533 168.871 6.702 169.599 6.702C170.327 6.702 170.985 6.86533 171.573 7.192C172.161 7.50933 172.623 7.96667 172.959 8.564C173.304 9.16133 173.477 9.85667 173.477 10.65C173.477 11.4433 173.3 12.1433 172.945 12.75C172.6 13.3473 172.128 13.8093 171.531 14.136C170.934 14.4627 170.271 14.626 169.543 14.626ZM169.543 13.506C170 13.506 170.43 13.3987 170.831 13.184C171.232 12.9693 171.554 12.6473 171.797 12.218C172.049 11.7887 172.175 11.266 172.175 10.65C172.175 10.034 172.054 9.51133 171.811 9.082C171.568 8.65267 171.251 8.33533 170.859 8.13C170.467 7.91533 170.042 7.808 169.585 7.808C169.118 7.808 168.689 7.91533 168.297 8.13C167.914 8.33533 167.606 8.65267 167.373 9.082C167.14 9.51133 167.023 10.034 167.023 10.65C167.023 11.2753 167.135 11.8027 167.359 12.232C167.592 12.6613 167.9 12.9833 168.283 13.198C168.666 13.4033 169.086 13.506 169.543 13.506ZM176.426 8.074C176.65 7.63533 176.968 7.29467 177.378 7.052C177.798 6.80933 178.307 6.688 178.904 6.688V8.004H178.568C177.14 8.004 176.426 8.77867 176.426 10.328V14.5H175.152V6.828H176.426V8.074ZM187.375 10.37C187.375 10.6127 187.361 10.8693 187.333 11.14H181.201C181.248 11.896 181.504 12.4887 181.971 12.918C182.447 13.338 183.021 13.548 183.693 13.548C184.244 13.548 184.701 13.422 185.065 13.17C185.438 12.9087 185.7 12.5633 185.849 12.134H187.221C187.016 12.8713 186.605 13.4733 185.989 13.94C185.373 14.3973 184.608 14.626 183.693 14.626C182.965 14.626 182.312 14.4627 181.733 14.136C181.164 13.8093 180.716 13.3473 180.389 12.75C180.062 12.1433 179.899 11.4433 179.899 10.65C179.899 9.85667 180.058 9.16133 180.375 8.564C180.692 7.96667 181.136 7.50933 181.705 7.192C182.284 6.86533 182.946 6.702 183.693 6.702C184.421 6.702 185.065 6.86067 185.625 7.178C186.185 7.49533 186.614 7.934 186.913 8.494C187.221 9.04467 187.375 9.67 187.375 10.37ZM186.059 10.104C186.059 9.61867 185.952 9.20333 185.737 8.858C185.522 8.50333 185.228 8.23733 184.855 8.06C184.491 7.87333 184.085 7.78 183.637 7.78C182.993 7.78 182.442 7.98533 181.985 8.396C181.537 8.80667 181.28 9.376 181.215 10.104H186.059Z" fill="black"/>
</svg>
